<svg width="28" height="26" viewBox="0 0 28 26" fill="none" xmlns="http://www.w3.org/2000/svg">
<path opacity="0.4" d="M17.2821 3.63L18.8812 5.34987C19.4488 5.96032 20.2447 6.30712 21.0783 6.30712H25.2798V22.3698H3.51742V6.30712H7.71895C8.55249 6.30712 9.34845 5.96032 9.91603 5.34987L11.5151 3.63H17.2821ZM18.479 0.952881H10.3182L9.31244 2.03459C8.36648 3.05201 7.03987 3.63 5.65063 3.63H3.51742C2.02125 3.63 0.797119 4.8347 0.797119 6.30712V22.3698C0.797119 23.8422 2.02125 25.0469 3.51742 25.0469H25.2798C26.776 25.0469 28.0001 23.8422 28.0001 22.3698V6.30712C28.0001 4.8347 26.776 3.63 25.2798 3.63H23.1466C21.7573 3.63 20.4307 3.05201 19.4848 2.03459L18.479 0.952881ZM14.3986 10.3228C16.6428 10.3228 18.479 12.1298 18.479 14.3385C18.479 16.5471 16.6428 18.3541 14.3986 18.3541C12.1544 18.3541 10.3182 16.5471 10.3182 14.3385C10.3182 12.1298 12.1544 10.3228 14.3986 10.3228ZM14.3986 7.64567C10.6446 7.64567 7.59786 10.644 7.59786 14.3385C7.59786 18.0329 10.6446 21.0313 14.3986 21.0313C18.1526 21.0313 21.1993 18.0329 21.1993 14.3385C21.1993 10.644 18.1526 7.64567 14.3986 7.64567Z" fill="black"/>
</svg>
