<svg width="31" height="27" viewBox="0 0 31 27" fill="none" xmlns="http://www.w3.org/2000/svg">
<rect width="31" height="27" rx="4" fill="#BB2BFF"/>
<path fill-rule="evenodd" clip-rule="evenodd" d="M15.0001 5.04175C14.4961 5.04175 14.0321 5.16699 13.5241 5.3771C13.0335 5.57998 12.4637 5.87901 11.7542 6.25135L10.0312 7.15551C9.16043 7.61247 8.46355 7.97817 7.92548 8.33751C7.36803 8.70978 6.93868 9.10176 6.62602 9.63273C6.3144 10.1619 6.17421 10.7349 6.10699 11.4173C6.04174 12.0797 6.04174 12.8944 6.04175 13.9189V14.0813C6.04174 15.1058 6.04174 15.9204 6.10699 16.5828C6.17421 17.2652 6.3144 17.8382 6.62602 18.3674C6.93868 18.8984 7.36803 19.2904 7.92548 19.6627C8.46355 20.022 9.16042 20.3877 10.0312 20.8447L11.7541 21.7488C12.4636 22.1211 13.0335 22.4202 13.5241 22.6231C14.0321 22.8332 14.4961 22.9584 15.0001 22.9584C15.504 22.9584 15.968 22.8332 16.4761 22.6231C16.9667 22.4202 17.5365 22.1212 18.246 21.7488L19.9689 20.8447C20.8397 20.3877 21.5366 20.022 22.0747 19.6627C22.6321 19.2904 23.0615 18.8984 23.3741 18.3674C23.6858 17.8382 23.826 17.2652 23.8932 16.5828C23.9584 15.9204 23.9584 15.1058 23.9584 14.0813V13.9189C23.9584 12.8944 23.9584 12.0797 23.8932 11.4173C23.826 10.7349 23.6858 10.1619 23.3741 9.63273C23.0615 9.10176 22.6321 8.70978 22.0747 8.33751C21.5366 7.97817 20.8397 7.61247 19.9689 7.1555L18.246 6.25136C17.5365 5.87901 16.9667 5.57999 16.4761 5.3771C15.968 5.16699 15.504 5.04175 15.0001 5.04175ZM12.3091 7.37181C13.0505 6.98273 13.5701 6.71074 14.0018 6.53222C14.4219 6.35845 14.7171 6.29175 15.0001 6.29175C15.283 6.29175 15.5782 6.35845 15.9984 6.53222C16.4301 6.71075 16.9497 6.98273 17.6911 7.37181L19.3577 8.24644C20.2658 8.72298 20.9038 9.05868 21.3805 9.37702C21.6157 9.53407 21.8005 9.6799 21.9496 9.82653L19.1741 11.2143L12.0909 7.48632L12.3091 7.37181ZM10.7873 8.17041L10.6424 8.24644C9.73434 8.72298 9.09636 9.05868 8.61968 9.37702C8.38451 9.53407 8.19971 9.6799 8.05053 9.82653L15.0001 13.3013L17.7977 11.9025L10.959 8.30315C10.8925 8.26819 10.835 8.22294 10.7873 8.17041ZM7.44815 10.9229C7.40606 11.1011 7.37425 11.3035 7.35097 11.5399C7.29245 12.1339 7.29175 12.8871 7.29175 13.9513V14.0488C7.29175 15.1131 7.29245 15.8663 7.35097 16.4603C7.4082 17.0412 7.51693 17.4169 7.70314 17.7332C7.88831 18.0476 8.15614 18.3136 8.61968 18.6231C9.09636 18.9415 9.73434 19.2772 10.6424 19.7537L12.3091 20.6284C13.0505 21.0174 13.5701 21.2894 14.0018 21.4679C14.1381 21.5243 14.2612 21.5694 14.3751 21.6046V14.3864L7.44815 10.9229ZM15.6251 21.6046C15.7389 21.5694 15.8621 21.5243 15.9984 21.4679C16.4301 21.2894 16.9497 21.0174 17.6911 20.6284L19.3577 19.7537C20.2658 19.2772 20.9038 18.9415 21.3805 18.6231C21.844 18.3136 22.1119 18.0476 22.297 17.7332C22.4832 17.4169 22.592 17.0412 22.6492 16.4603C22.7077 15.8663 22.7084 15.1131 22.7084 14.0488V13.9513C22.7084 12.8871 22.7077 12.1339 22.6492 11.5399C22.6259 11.3035 22.5941 11.1011 22.552 10.9229L19.7917 12.303V14.8334C19.7917 15.1786 19.5119 15.4584 19.1667 15.4584C18.8216 15.4584 18.5417 15.1786 18.5417 14.8334V12.928L15.6251 14.3864V21.6046Z" fill="white"/>
</svg>
