<svg width="53" height="45" viewBox="0 0 53 45" fill="none" xmlns="http://www.w3.org/2000/svg">
<path d="M33.125 24.375H19.875" stroke="#1C274C" stroke-width="1.5" stroke-linecap="round"/>
<path d="M26.5 18.75L26.5 30" stroke="#1C274C" stroke-width="1.5" stroke-linecap="round"/>
<path d="M21.5927 39.375H31.4075C38.2998 39.375 41.7459 39.375 44.2214 37.9961C45.2931 37.3992 46.2132 36.6321 46.9293 35.7388C48.5834 33.6751 48.5834 30.8023 48.5834 25.0568C48.5834 19.3113 48.5834 16.4385 46.9293 14.3749C46.2132 13.4815 45.2931 12.7145 44.2214 12.1175C42.6307 11.2315 40.6393 10.9148 37.5903 10.8016C36.1354 10.8016 34.8826 9.88253 34.5973 8.69318C34.1693 6.90916 32.2902 5.625 30.1077 5.625H22.8924C20.7099 5.625 18.8309 6.90917 18.4029 8.69318C18.1175 9.88253 16.8648 10.8016 15.4098 10.8016C12.3609 10.9148 10.3694 11.2315 8.77874 12.1175C7.70706 12.7145 6.78692 13.4815 6.07084 14.3749C4.41675 16.4385 4.41675 19.3113 4.41675 25.0568C4.41675 30.8023 4.41675 33.6751 6.07084 35.7388C6.78692 36.6321 7.70706 37.3992 8.77874 37.9961C11.2543 39.375 14.7004 39.375 21.5927 39.375Z" stroke="#1C274C" stroke-width="1.5"/>
<path d="M41.9583 18.75H39.75" stroke="#1C274C" stroke-width="1.5" stroke-linecap="round"/>
</svg>
