<svg width="246" height="197" viewBox="0 0 246 197" fill="none" xmlns="http://www.w3.org/2000/svg">
<rect x="126.364" y="29.1243" width="4.90082" height="5.71762" rx="1" transform="rotate(-10.9119 126.364 29.1243)" fill="#E25E00"/>
<rect x="203.363" y="151.306" width="4.90082" height="5.71762" rx="1" transform="rotate(29.09 203.363 151.306)" fill="#E25E00"/>
<rect x="65.8157" y="189.19" width="4.90082" height="5.71762" rx="1" transform="rotate(29.09 65.8157 189.19)" fill="#E25E00"/>
<rect x="93.7145" y="45.1853" width="2.2612" height="2.63806" rx="1" fill="#E25E00"/>
<rect x="199.983" y="26.5198" width="4.16433" height="4.85839" rx="1" transform="rotate(27 199.983 26.5198)" fill="#E25E00"/>
<rect x="193.545" y="47.854" width="2.2612" height="2.63806" rx="1" fill="#E25E00"/>
<rect x="186.872" y="146.959" width="2.2612" height="2.63806" rx="1" fill="#E25E00"/>
<rect x="204.979" y="108.842" width="2.2612" height="2.63806" rx="1" fill="#E25E00"/>
<rect x="230.709" y="74.5364" width="2.2612" height="2.63806" rx="1" fill="#E25E00"/>
<rect x="209.743" y="135.524" width="2.2612" height="2.63806" rx="1" fill="#E25E00"/>
<rect x="163.181" y="185.86" width="2.2612" height="2.63806" rx="1" fill="#E25E00"/>
<rect x="67.6403" y="35.675" width="3.22878" height="3.76691" rx="1" transform="rotate(-22.65 67.6403 35.675)" fill="#E25E00"/>
<rect x="6.31018" y="170.261" width="3.22878" height="3.76691" rx="1" transform="rotate(17.3473 6.31018 170.261)" fill="#E25E00"/>
<rect x="57.7006" y="58.3362" width="1.22278" height="1.42657" rx="0.611389" transform="rotate(17.3473 57.7006 58.3362)" fill="#E25E00"/>
<rect x="182.534" y="65.9595" width="1.22278" height="1.42657" rx="0.611389" transform="rotate(17.3473 182.534 65.9595)" fill="#E25E00"/>
<rect x="233.039" y="87.8772" width="1.22278" height="1.42657" rx="0.611389" transform="rotate(17.3473 233.039 87.8772)" fill="#E25E00"/>
<rect x="67.8157" y="147.308" width="1.22278" height="1.42657" rx="0.611389" transform="rotate(17.3473 67.8157 147.308)" fill="#E25E00"/>
<rect x="23.3942" y="13.5481" width="1.22278" height="1.42657" rx="0.611389" transform="rotate(17.3473 23.3942 13.5481)" fill="#E25E00"/>
<rect x="32.3514" y="105.712" width="2.32195" height="2.70894" rx="1" transform="rotate(17.3473 32.3514 105.712)" fill="#E25E00"/>
<rect x="35.3479" y="140.177" width="2.32195" height="2.70894" rx="1" transform="rotate(17.3473 35.3479 140.177)" fill="#E25E00"/>
<rect x="103.813" y="173.411" width="2.32195" height="2.70894" rx="1" transform="rotate(17.3473 103.813 173.411)" fill="#E25E00"/>
<rect x="143.207" y="12.5955" width="3.22878" height="3.76691" rx="1" transform="rotate(17.3473 143.207 12.5955)" fill="#E25E00"/>
<rect x="44.4253" y="44.9946" width="4.15966" height="4.85293" rx="1" transform="rotate(17.3473 44.4253 44.9946)" fill="#E25E00"/>
<rect x="120.548" y="4.37964" width="4.15966" height="4.85293" rx="1" transform="rotate(-92.65 120.548 4.37964)" fill="#E25E00"/>
<rect x="9.82336" y="85.5745" width="6.4143" height="7.48335" rx="1" transform="rotate(135.279 9.82336 85.5745)" fill="#E25E00"/>
<rect x="237.378" y="178.699" width="6.4143" height="7.48335" rx="1" transform="rotate(-11.7361 237.378 178.699)" fill="#E25E00"/>
</svg>
