<svg width="18" height="19" viewBox="0 0 18 19" fill="none" xmlns="http://www.w3.org/2000/svg">
<path d="M18 0.0705878C14.6769 3.00271 11.5493 5.80452 8.55204 9.06244C11.5493 12.3204 14.6769 15.1222 18 17.9891C16.6968 18.7059 11.2887 14.7312 6.92308 10.8869C5.09864 13.0371 3.27421 15.3828 1.51493 18.1195C-0.700453 16.4253 -0.114027 14.5357 0.928507 13.1023C1.51493 12.3204 3.01357 10.7566 4.90317 9.06244C3.01357 7.30317 1.51493 5.80452 0.928507 5.02262C-0.114027 3.52398 -0.700453 1.69955 1.51493 0.00542947C3.27421 2.74208 5.09864 5.08778 6.92308 7.23801C11.2887 3.39367 16.6968 -0.580996 18 0.0705878Z" fill="#E70F0F"/>
</svg>
