<svg width="20" height="20" viewBox="0 0 20 20" fill="none" xmlns="http://www.w3.org/2000/svg">
<path fill-rule="evenodd" clip-rule="evenodd" d="M8.56509 0.250019H12.0116C12.2321 0.249881 12.4243 0.249761 12.6057 0.278188C13.3225 0.390494 13.9428 0.829147 14.2781 1.46084C14.363 1.62073 14.4236 1.79961 14.4932 2.00494L14.607 2.33984C14.6262 2.39653 14.6318 2.41258 14.6364 2.42522C14.8149 2.90933 15.2777 3.23659 15.8022 3.24964C15.816 3.24998 15.8329 3.25004 15.8941 3.25004H18.9518C19.374 3.25004 19.7162 3.58582 19.7162 4.00004C19.7162 4.41425 19.374 4.75004 18.9518 4.75004H1.62477C1.2026 4.75004 0.860352 4.41425 0.860352 4.00004C0.860352 3.58582 1.2026 3.25004 1.62477 3.25004H4.68255C4.74375 3.25004 4.76064 3.24998 4.77443 3.24964C5.29898 3.23659 5.76174 2.90936 5.94022 2.42524C5.94491 2.41251 5.95031 2.39681 5.96967 2.33984L6.08342 2.00496C6.15303 1.79964 6.21368 1.62073 6.29854 1.46084C6.63381 0.829149 7.25412 0.390494 7.97094 0.278188C8.15238 0.249761 8.34453 0.249881 8.56509 0.250019ZM7.23885 3.25004C7.29135 3.14902 7.33787 3.04404 7.3779 2.93548C7.39005 2.90251 7.40197 2.86742 7.41729 2.82234L7.51901 2.52292C7.61193 2.24941 7.63333 2.19363 7.65455 2.15364C7.76631 1.94307 7.97308 1.79686 8.21202 1.75942C8.2574 1.75231 8.31809 1.75004 8.61195 1.75004H11.9647C12.2585 1.75004 12.3192 1.75231 12.3646 1.75942C12.6036 1.79686 12.8103 1.94307 12.9221 2.15364C12.9433 2.19363 12.9647 2.2494 13.0576 2.52292L13.1593 2.82216L13.1988 2.9355C13.2388 3.04405 13.2853 3.14902 13.3378 3.25004H7.23885Z" fill="#1C274C"/>
<path d="M4.08631 6.45015C4.05823 6.03685 3.69397 5.72415 3.27273 5.7517C2.85149 5.77925 2.53277 6.13663 2.56085 6.54993L3.03321 13.5017C3.12035 14.7844 3.19074 15.8205 3.35582 16.6336C3.52746 17.4789 3.81939 18.185 4.42236 18.7385C5.02533 19.2919 5.7628 19.5308 6.63388 19.6425C7.47172 19.7501 8.53011 19.7501 9.84039 19.75H10.7362C12.0465 19.7501 13.1049 19.7501 13.9428 19.6425C14.8138 19.5308 15.5513 19.2919 16.1543 18.7385C16.7573 18.185 17.0492 17.4789 17.2208 16.6336C17.3859 15.8206 17.4563 14.7844 17.5434 13.5017L18.0158 6.54993C18.0439 6.13663 17.7252 5.77925 17.3039 5.7517C16.8827 5.72415 16.5184 6.03685 16.4903 6.45015L16.0215 13.3493C15.93 14.6971 15.8647 15.6349 15.7214 16.3406C15.5825 17.025 15.3885 17.3873 15.1098 17.6431C14.8311 17.8989 14.4498 18.0647 13.7445 18.1552C13.0173 18.2485 12.0593 18.25 10.6824 18.25H9.8942C8.51738 18.25 7.5593 18.2485 6.83218 18.1552C6.12687 18.0647 5.74552 17.8989 5.46685 17.6431C5.18817 17.3873 4.99418 17.025 4.85521 16.3406C4.71194 15.6349 4.64668 14.6971 4.55509 13.3493L4.08631 6.45015Z" fill="#1C274C"/>
<path d="M7.66419 8.25376C8.08427 8.21254 8.45887 8.51325 8.50088 8.92541L9.0105 13.9254C9.05251 14.3376 8.74602 14.7051 8.32593 14.7463C7.90585 14.7875 7.53125 14.4868 7.48924 14.0747L6.97962 9.07467C6.93761 8.66251 7.24411 8.29498 7.66419 8.25376Z" fill="#1C274C"/>
<path d="M12.9125 8.25376C13.3326 8.29498 13.639 8.66251 13.597 9.07467L13.0874 14.0747C13.0454 14.4868 12.6708 14.7875 12.2507 14.7463C11.8306 14.7051 11.5242 14.3376 11.5662 13.9254L12.0758 8.92541C12.1178 8.51325 12.4924 8.21254 12.9125 8.25376Z" fill="#1C274C"/>
</svg>
