<svg width="19" height="18" viewBox="0 0 19 18" fill="none" xmlns="http://www.w3.org/2000/svg">
<path d="M11.6358 2.66293L12.3916 1.92142C13.6438 0.692859 15.674 0.692859 16.9262 1.92142C18.1784 3.14999 18.1784 5.14188 16.9262 6.37044L16.1704 7.11195M11.6358 2.66293C11.6358 2.66293 11.7303 4.23862 13.1474 5.62894C14.5644 7.01926 16.1704 7.11195 16.1704 7.11195M11.6358 2.66293L4.68774 9.47992C4.21713 9.94165 3.98182 10.1725 3.77946 10.4271C3.54074 10.7273 3.33608 11.0522 3.1691 11.396C3.02754 11.6874 2.92231 11.9972 2.71184 12.6167L1.82001 15.2417M16.1704 7.11195L9.22231 13.9289C8.75171 14.3907 8.5164 14.6215 8.25695 14.8201C7.9509 15.0543 7.61975 15.2551 7.26937 15.4189C6.97234 15.5578 6.65664 15.6611 6.02526 15.8675L3.34977 16.7426M3.34977 16.7426L2.69576 16.9564C2.38505 17.0581 2.04249 16.9787 1.8109 16.7515C1.57931 16.5243 1.49844 16.1882 1.60201 15.8833L1.82001 15.2417M3.34977 16.7426L1.82001 15.2417" stroke="#1C274C" stroke-width="1.5"/>
</svg>
