<svg width="31" height="27" viewBox="0 0 31 27" fill="none" xmlns="http://www.w3.org/2000/svg">
<rect width="31" height="27" rx="4" fill="#00B100"/>
<path fill-rule="evenodd" clip-rule="evenodd" d="M11.0522 6.71713C11.1518 5.77545 11.9486 5.04175 12.9167 5.04175H17.0833C18.0514 5.04175 18.8482 5.77545 18.9478 6.71713C19.5837 6.73007 20.1336 6.76297 20.603 6.8492C21.2347 6.96523 21.7723 7.18626 22.2097 7.62371C22.7113 8.1253 22.9271 8.75687 23.0279 9.50696C23.125 10.2294 23.125 11.148 23.125 12.2877V17.3791C23.125 18.5188 23.125 19.4374 23.0279 20.1599C22.9271 20.91 22.7113 21.5415 22.2097 22.0431C21.7081 22.5447 21.0765 22.7605 20.3265 22.8613C19.604 22.9584 18.6854 22.9584 17.5457 22.9584H12.4543C11.3146 22.9584 10.396 22.9584 9.67354 22.8613C8.92345 22.7605 8.29189 22.5447 7.79029 22.0431C7.2887 21.5415 7.07295 20.91 6.9721 20.1599C6.87497 19.4374 6.87498 18.5188 6.875 17.3791V12.2877C6.87498 11.148 6.87497 10.2294 6.9721 9.50696C7.07295 8.75687 7.2887 8.1253 7.79029 7.62371C8.22773 7.18626 8.7653 6.96523 9.39696 6.8492C9.86644 6.76297 10.4163 6.73007 11.0522 6.71713ZM11.0541 7.96747C10.4557 7.98025 9.99447 8.01036 9.62279 8.07863C9.15045 8.1654 8.87705 8.30471 8.67418 8.50759C8.44354 8.73823 8.29317 9.06204 8.21096 9.67352C8.12633 10.303 8.125 11.1372 8.125 12.3334V17.3334C8.125 18.5296 8.12633 19.3639 8.21096 19.9933C8.29317 20.6048 8.44354 20.9286 8.67418 21.1592C8.90481 21.3899 9.22862 21.5402 9.8401 21.6225C10.4696 21.7071 11.3038 21.7084 12.5 21.7084H17.5C18.6962 21.7084 19.5304 21.7071 20.1599 21.6225C20.7714 21.5402 21.0952 21.3899 21.3258 21.1592C21.5565 20.9286 21.7068 20.6048 21.789 19.9933C21.8737 19.3639 21.875 18.5296 21.875 17.3334V12.3334C21.875 11.1372 21.8737 10.303 21.789 9.67352C21.7068 9.06204 21.5565 8.73823 21.3258 8.50759C21.1229 8.30471 20.8496 8.1654 20.3772 8.07863C20.0055 8.01036 19.5443 7.98025 18.9459 7.96747C18.8381 8.9006 18.0453 9.62508 17.0833 9.62508H12.9167C11.9547 9.62508 11.1619 8.9006 11.0541 7.96747ZM12.9167 6.29175C12.5715 6.29175 12.2917 6.57157 12.2917 6.91675V7.75008C12.2917 8.09526 12.5715 8.37508 12.9167 8.37508H17.0833C17.4285 8.37508 17.7083 8.09526 17.7083 7.75008V6.91675C17.7083 6.57157 17.4285 6.29175 17.0833 6.29175H12.9167ZM10.2083 12.7501C10.2083 12.4049 10.4882 12.1251 10.8333 12.1251H19.1667C19.5118 12.1251 19.7917 12.4049 19.7917 12.7501C19.7917 13.0953 19.5118 13.3751 19.1667 13.3751H10.8333C10.4882 13.3751 10.2083 13.0953 10.2083 12.7501ZM11.0417 15.6667C11.0417 15.3216 11.3215 15.0417 11.6667 15.0417H18.3333C18.6785 15.0417 18.9583 15.3216 18.9583 15.6667C18.9583 16.0119 18.6785 16.2917 18.3333 16.2917H11.6667C11.3215 16.2917 11.0417 16.0119 11.0417 15.6667ZM11.875 18.5834C11.875 18.2382 12.1548 17.9584 12.5 17.9584H17.5C17.8452 17.9584 18.125 18.2382 18.125 18.5834C18.125 18.9286 17.8452 19.2084 17.5 19.2084H12.5C12.1548 19.2084 11.875 18.9286 11.875 18.5834Z" fill="white"/>
</svg>
