<svg width="31" height="27" viewBox="0 0 31 27" fill="none" xmlns="http://www.w3.org/2000/svg">
<rect width="31" height="27" rx="4" fill="#E25E00"/>
<path d="M21.2501 18.5834C21.2501 19.0437 20.877 19.4167 20.4167 19.4167C19.9565 19.4167 19.5834 19.0437 19.5834 18.5834C19.5834 18.1232 19.9565 17.7501 20.4167 17.7501C20.877 17.7501 21.2501 18.1232 21.2501 18.5834Z" fill="white"/>
<path d="M10.4167 8.58342C10.4167 9.04365 10.0437 9.41675 9.58341 9.41675C9.12318 9.41675 8.75008 9.04365 8.75008 8.58342C8.75008 8.12318 9.12318 7.75008 9.58341 7.75008C10.0437 7.75008 10.4167 8.12318 10.4167 8.58342Z" fill="white"/>
<path fill-rule="evenodd" clip-rule="evenodd" d="M6.04175 8.38118C6.04175 6.49532 7.67046 5.04175 9.58341 5.04175C11.4964 5.04175 13.1251 6.49532 13.1251 8.38118C13.1251 10.0697 12.0869 12.0627 10.3624 12.7996C9.86693 13.0113 9.2999 13.0113 8.80445 12.7996C7.07992 12.0627 6.04175 10.0697 6.04175 8.38118ZM9.58341 6.29175C8.27471 6.29175 7.29175 7.26876 7.29175 8.38118C7.29175 9.6674 8.11537 11.1458 9.29566 11.6502C9.47736 11.7278 9.68947 11.7278 9.87117 11.6502C11.0515 11.1458 11.8751 9.6674 11.8751 8.38118C11.8751 7.26876 10.8921 6.29175 9.58341 6.29175ZM14.3751 8.16675C14.3751 7.82157 14.6549 7.54175 15.0001 7.54175H18.4433C20.736 7.54175 21.6079 10.5359 19.6737 11.7668L10.9976 17.2879C10.1184 17.8474 10.5147 19.2084 11.5568 19.2084H13.4912L13.3081 19.0254C13.0641 18.7813 13.0641 18.3856 13.3081 18.1415C13.5522 17.8974 13.9479 17.8974 14.192 18.1415L15.442 19.3915C15.6861 19.6356 15.6861 20.0313 15.442 20.2754L14.192 21.5254C13.9479 21.7694 13.5522 21.7694 13.3081 21.5254C13.0641 21.2813 13.0641 20.8856 13.3081 20.6415L13.4912 20.4584H11.5568C9.26414 20.4584 8.39226 17.4642 10.3265 16.2334L19.0026 10.7122C19.8818 10.1527 19.4855 8.79175 18.4433 8.79175H15.0001C14.6549 8.79175 14.3751 8.51193 14.3751 8.16675ZM16.8751 18.3812C16.8751 16.4953 18.5038 15.0417 20.4167 15.0417C22.3297 15.0417 23.9584 16.4953 23.9584 18.3812C23.9584 20.0697 22.9202 22.0627 21.1957 22.7996C20.7003 23.0114 20.1332 23.0114 19.6378 22.7996C17.9133 22.0627 16.8751 20.0697 16.8751 18.3812ZM20.4167 16.2917C19.108 16.2917 18.1251 17.2688 18.1251 18.3812C18.1251 19.6674 18.9487 21.1458 20.129 21.6502C20.3107 21.7278 20.5228 21.7278 20.7045 21.6502C21.8848 21.1458 22.7084 19.6674 22.7084 18.3812C22.7084 17.2688 21.7255 16.2917 20.4167 16.2917Z" fill="white"/>
</svg>
