<svg width="18" height="18" viewBox="0 0 18 18" fill="none" xmlns="http://www.w3.org/2000/svg">
<path d="M15.2501 13.5833C15.2501 14.0435 14.877 14.4166 14.4167 14.4166C13.9565 14.4166 13.5834 14.0435 13.5834 13.5833C13.5834 13.1231 13.9565 12.75 14.4167 12.75C14.877 12.75 15.2501 13.1231 15.2501 13.5833Z" fill="white"/>
<path d="M4.41675 3.58329C4.41675 4.04353 4.04365 4.41663 3.58341 4.41663C3.12318 4.41663 2.75008 4.04353 2.75008 3.58329C2.75008 3.12306 3.12318 2.74996 3.58341 2.74996C4.04365 2.74996 4.41675 3.12306 4.41675 3.58329Z" fill="white"/>
<path fill-rule="evenodd" clip-rule="evenodd" d="M0.041748 3.38106C0.041748 1.4952 1.67046 0.041626 3.58341 0.041626C5.49637 0.041626 7.12508 1.4952 7.12508 3.38106C7.12508 5.06962 6.08691 7.06253 4.36238 7.7995C3.86693 8.01123 3.2999 8.01123 2.80445 7.7995C1.07992 7.06253 0.041748 5.06962 0.041748 3.38106ZM3.58341 1.29163C2.27471 1.29163 1.29175 2.26864 1.29175 3.38106C1.29175 4.66728 2.11537 6.14567 3.29566 6.65006C3.47736 6.72771 3.68947 6.72771 3.87117 6.65006C5.05146 6.14567 5.87508 4.66728 5.87508 3.38106C5.87508 2.26864 4.89212 1.29163 3.58341 1.29163ZM8.37508 3.16663C8.37508 2.82145 8.6549 2.54163 9.00008 2.54163H12.4433C14.736 2.54163 15.6079 5.53579 13.6737 6.76668L4.9976 12.2878C4.11839 12.8473 4.51472 14.2083 5.55684 14.2083H7.4912L7.30814 14.0252C7.06406 13.7812 7.06406 13.3854 7.30814 13.1414C7.55222 12.8973 7.94795 12.8973 8.19202 13.1414L9.44202 14.3914C9.6861 14.6354 9.6861 15.0312 9.44202 15.2752L8.19202 16.5252C7.94795 16.7693 7.55222 16.7693 7.30814 16.5252C7.06406 16.2812 7.06406 15.8854 7.30814 15.6414L7.4912 15.4583H5.55684C3.26414 15.4583 2.39226 12.4641 4.32651 11.2332L13.0026 5.71211C13.8818 5.15261 13.4855 3.79163 12.4433 3.79163H9.00008C8.6549 3.79163 8.37508 3.5118 8.37508 3.16663ZM10.8751 13.3811C10.8751 11.4952 12.5038 10.0416 14.4167 10.0416C16.3297 10.0416 17.9584 11.4952 17.9584 13.3811C17.9584 15.0696 16.9202 17.0625 15.1957 17.7995C14.7003 18.0112 14.1332 18.0112 13.6378 17.7995C11.9133 17.0625 10.8751 15.0696 10.8751 13.3811ZM14.4167 11.2916C13.108 11.2916 12.1251 12.2686 12.1251 13.3811C12.1251 14.6673 12.9487 16.1457 14.129 16.6501C14.3107 16.7277 14.5228 16.7277 14.7045 16.6501C15.8848 16.1457 16.7084 14.6673 16.7084 13.3811C16.7084 12.2686 15.7255 11.2916 14.4167 11.2916Z" fill="white"/>
</svg>
