<svg width="20" height="20" viewBox="0 0 20 20" fill="none" xmlns="http://www.w3.org/2000/svg">
    <path fill-rule="evenodd" clip-rule="evenodd" d="M0.5192 5.82274C0 6.77128 0 7.91549 0 10.2039V11.725C0 15.6258 0 17.5763 1.17157 18.7881C2.34315 20 4.22876 20 8 20H12C15.7712 20 17.6569 20 18.8284 18.7881C20 17.5763 20 15.6258 20 11.725V10.2039C20 7.91549 20 6.77128 19.4808 5.82274C18.9616 4.87421 18.0131 4.28551 16.116 3.10812L14.116 1.86687C12.1106 0.62229 11.1079 0 10 0C8.89206 0 7.88939 0.62229 5.88403 1.86687L3.88403 3.10813C1.98695 4.28551 1.0384 4.87421 0.5192 5.82274ZM7 15.25C6.58579 15.25 6.25 15.5858 6.25 16C6.25 16.4142 6.58579 16.75 7 16.75H13C13.4142 16.75 13.75 16.4142 13.75 16C13.75 15.5858 13.4142 15.25 13 15.25H7Z" fill="#E25E00"/>
</svg>
